<svg width="40" height="40" viewBox="0 0 40 40" fill="none" xmlns="http://www.w3.org/2000/svg">
<path d="M4.5835 10C4.25198 10 3.93403 10.1317 3.69961 10.3661C3.46519 10.6005 3.3335 10.9185 3.3335 11.25C3.3335 11.5815 3.46519 11.8995 3.69961 12.1339C3.93403 12.3683 4.25198 12.5 4.5835 12.5H35.4168C35.7483 12.5 36.0663 12.3683 36.3007 12.1339C36.5351 11.8995 36.6668 11.5815 36.6668 11.25C36.6668 10.9185 36.5351 10.6005 36.3007 10.3661C36.0663 10.1317 35.7483 10 35.4168 10H4.5835ZM10.0002 19.5833C10.0002 19.2518 10.1319 18.9339 10.3663 18.6994C10.6007 18.465 10.9186 18.3333 11.2502 18.3333H28.7502C29.0817 18.3333 29.3996 18.465 29.634 18.6994C29.8685 18.9339 30.0002 19.2518 30.0002 19.5833C30.0002 19.9149 29.8685 20.2328 29.634 20.4672C29.3996 20.7016 29.0817 20.8333 28.7502 20.8333H11.2502C10.9186 20.8333 10.6007 20.7016 10.3663 20.4672C10.1319 20.2328 10.0002 19.9149 10.0002 19.5833ZM16.6668 27.8133C16.6668 27.4818 16.7985 27.1639 17.0329 26.9294C17.2674 26.695 17.5853 26.5633 17.9168 26.5633H22.0835C22.415 26.5633 22.733 26.695 22.9674 26.9294C23.2018 27.1639 23.3335 27.4818 23.3335 27.8133C23.3335 28.1449 23.2018 28.4628 22.9674 28.6972C22.733 28.9316 22.415 29.0633 22.0835 29.0633H17.9168C17.5853 29.0633 17.2674 28.9316 17.0329 28.6972C16.7985 28.4628 16.6668 28.1449 16.6668 27.8133Z" fill="#17183B"/>
</svg>
